# File created by Blade
# Date/Time:  Tue Jan 27 20:12:12 2015
#---------------------------------------------------------
:version 1.10
:name HOM
:units
  mass 1.0
  length 1.000000
  angle deg
:documentation
     Acclaim Skeleton File
:root
   axis xyz
   order TX TY TZ RX RY RZ
   position 0.000000 0.000000 0.000000
   orientation 0 0 0
:bonedata
   begin
      id 1
      name Spine_dum
      direction 0.000000 1.000000 0.000000
      length 6.116652
      axis 0.0 0.0 0.0 xyz
   end
   begin
      id 2
      name LeftUpLeg_dum
      direction 1.000000 0.000000 0.000000
      length 4.711765
      axis 0.0 0.0 0.0 xyz
   end
   begin
      id 3
      name RightUpLeg_dum
      direction -1.000000 0.000000 0.000000
      length 4.711765
      axis 0.0 0.0 0.0 xyz
   end
   begin
      id 4
      name Spine
      direction 0.000000 1.000000 0.000000
      length 0.000000
      axis 0.0 0.0 0.0 xyz
      dof rx ry rz
   end
   begin
      id 5
      name Spine_dum1
      direction 0.000000 1.000000 0.000000
      length 15.225563
      axis 0.0 0.0 0.0 xyz
   end
   begin
      id 6
      name Spine_dum2
      direction 0.000000 1.000000 0.000000
      length 8.977654
      axis 0.0 0.0 0.0 xyz
   end
   begin
      id 7
      name Spine_dum3
      direction 0.000000 1.000000 0.000000
      length 8.977654
      axis 0.0 0.0 0.0 xyz
   end
   begin
      id 8
      name Head
      direction 0.000000 1.000000 0.000000
      length 4.527550
      axis 0.0 0.0 0.0 xyz
      dof rx ry rz
   end
   begin
      id 9
      name LeftShoulder
      direction 1.000000 0.000000 0.000000
      length 7.110130
      axis 0.0 0.0 -90.0 xyz
      dof rx ry rz
   end
   begin
      id 10
      name LeftArm
      direction 1.000000 0.000000 0.000000
      length 10.398341
      axis 0.0 0.0 -90.0 xyz
      dof rx ry rz
   end
   begin
      id 11
      name LeftForeArm
      direction 1.000000 0.000000 0.000000
      length 8.888997
      axis 0.0 0.0 -90.0 xyz
      dof ry rz rx
   end
   begin
      id 12
      name LeftHand
      direction 0.000000 0.000000 0.000000
      length 0.000000
      axis 0.0 0.0 -90.0 xyz
      dof rx ry rz
   end
   begin
      id 13
      name LeftHand_dum1
      direction 0.000000 0.000000 0.000000
      length 0.000000
      axis 0.0 0.0 -90.0 xyz
   end
   begin
      id 14
      name LeftHand_dum2
      direction 1.000000 0.000000 0.000000
      length 3.937000
      axis 0.0 0.0 -90.0 xyz
   end
   begin
      id 15
      name LeftHandThumb1
      direction 0.000000 0.000000 1.000000
      length 3.937000
      axis 0.0 0.0 -90.0 xyz
      dof rx rz ry
   end
   begin
      id 16
      name RightShoulder
      direction -1.000000 0.000000 0.000000
      length 7.110130
      axis 0.0 0.0 90.0 xyz
      dof rx ry rz
   end
   begin
      id 17
      name RightArm
      direction -1.000000 0.000000 0.000000
      length 10.398341
      axis 0.0 0.0 90.0 xyz
      dof rx ry rz
   end
   begin
      id 18
      name RightForeArm
      direction -1.000000 0.000000 0.000000
      length 8.888997
      axis 0.0 0.0 90.0 xyz
      dof ry rz rx
   end
   begin
      id 19
      name RightHand
      direction 0.000000 0.000000 0.000000
      length 0.000000
      axis 0.0 0.0 90.0 xyz
      dof rx ry rz
   end
   begin
      id 20
      name RightHand_dum1
      direction 0.000000 0.000000 0.000000
      length 0.000000
      axis 0.0 0.0 90.0 xyz
   end
   begin
      id 21
      name RightHand_dum2
      direction -1.000000 0.000000 0.000000
      length 3.937000
      axis 0.0 0.0 90.0 xyz
   end
   begin
      id 22
      name RightHandThumb1
      direction 0.000000 0.000000 1.000000
      length 3.937000
      axis 0.0 0.0 90.0 xyz
      dof rx rz ry
   end
   begin
      id 23
      name LeftUpLeg
      direction 0.000000 -1.000000 0.000000
      length 15.510451
      axis 0.0 0.0 0.0 xyz
      dof rx ry rz
   end
   begin
      id 24
      name LeftLeg
      direction 0.000000 -1.000000 0.000000
      length 14.858061
      axis 0.0 0.0 0.0 xyz
      dof rx ry rz
   end
   begin
      id 25
      name LeftFoot
      direction 0.000000 -0.258819 0.965926
      length 5.128852
      axis 15.0 0.0 0.0 xyz
      dof rx ry rz
   end
   begin
      id 26
      name LeftToeBase
      direction 0.000000 0.000000 1.000000
      length 2.952750
      axis 0.0 0.0 0.0 xyz
      dof rx ry rz
   end
   begin
      id 27
      name RightUpLeg
      direction 0.000000 -1.000000 0.000000
      length 15.510451
      axis 0.0 0.0 0.0 xyz
      dof rx ry rz
   end
   begin
      id 28
      name RightLeg
      direction 0.000000 -1.000000 0.000000
      length 14.858061
      axis 0.0 0.0 0.0 xyz
      dof rx ry rz
   end
   begin
      id 29
      name RightFoot
      direction 0.000000 -0.258819 0.965926
      length 5.128852
      axis 15.0 0.0 0.0 xyz
      dof rx ry rz
   end
   begin
      id 30
      name RightToeBase
      direction 0.000000 0.000000 1.000000
      length 2.952750
      axis 0.0 0.0 0.0 xyz
      dof rx ry rz
   end
:hierarchy
   begin
      root Spine_dum LeftUpLeg_dum RightUpLeg_dum
      Spine_dum Spine
      LeftUpLeg_dum LeftUpLeg
      RightUpLeg_dum RightUpLeg
      Spine Spine_dum1 Spine_dum2 Spine_dum3
      Spine_dum1 Head
      Spine_dum2 LeftShoulder
      Spine_dum3 RightShoulder
      LeftShoulder LeftArm
      LeftArm LeftForeArm
      LeftForeArm LeftHand
      LeftHand LeftHand_dum1 LeftHand_dum2
      LeftHand_dum1 LeftHandThumb1
      RightShoulder RightArm
      RightArm RightForeArm
      RightForeArm RightHand
      RightHand RightHand_dum1 RightHand_dum2
      RightHand_dum1 RightHandThumb1
      LeftUpLeg LeftLeg
      LeftLeg LeftFoot
      LeftFoot LeftToeBase
      RightUpLeg RightLeg
      RightLeg RightFoot
      RightFoot RightToeBase
   end

# File created by Blade
# Date/Time:  Tue Jan 27 20:12:02 2015
# Frame Rate: 120.000 fps
#------------------------------------------------------
:FULLY-SPECIFIED
:DEGREES
561
root 8.035706 32.497286 -3.815918 5.509999 21.136225 -1.402188
Spine 1.399362 -1.459797 -1.796317
Head 16.188271 -14.709040 2.205945
LeftShoulder -14.891653 -1.085452 29.954917
LeftArm -13.410632 -35.973560 -71.135476
LeftForeArm -3.958572 -0.000000 94.420785
LeftHand 16.513679 -0.000000 20.432876
LeftHandThumb1 -26.253704 0.000000 33.147579
RightShoulder -23.772753 -24.881310 -21.820080
RightArm 8.089688 -30.291005 89.349270
RightForeArm -24.486043 -0.000000 103.191852
RightHand 17.535968 0.000000 0.322453
RightHandThumb1 -24.326973 -0.000000 -32.862282
LeftUpLeg -0.260033 -13.014732 -4.378856
LeftLeg -4.484585 -0.000000 0.000000
LeftFoot -7.855357 8.327285 -13.094442
LeftToeBase 22.829749 -0.000000 -0.000000
RightUpLeg -7.918793 11.598214 6.010437
RightLeg 14.161747 -0.000000 -0.000000
RightFoot -20.321329 -13.006264 20.939574
RightToeBase 11.027329 -0.000000 -0.000000
562
root 8.016801 32.505907 -3.820051 5.468676 20.913023 -1.504503
Spine 1.392974 -1.386074 -1.785283
Head 16.378472 -14.627486 2.228124
LeftShoulder -14.934567 -1.040733 29.952853
LeftArm -13.363405 -35.930721 -71.075846
LeftForeArm -3.799853 -0.000000 94.392145
LeftHand 16.630428 -0.000000 20.246769
LeftHandThumb1 -26.253704 0.000000 33.147579
RightShoulder -23.740016 -24.822057 -21.846434
RightArm 8.054021 -30.327461 89.410656
RightForeArm -24.300061 -0.000000 103.212011
RightHand 17.537058 -0.000000 0.468100
RightHandThumb1 -24.326973 -0.000000 -32.862282
LeftUpLeg -0.275620 -12.776669 -4.269930
LeftLeg -4.443070 -0.000000 0.000000
LeftFoot -7.934725 8.314396 -13.185274
LeftToeBase 22.885093 -0.000000 -0.000000
RightUpLeg -7.784118 11.324672 6.169326
RightLeg 13.621081 -0.000000 -0.000000
RightFoot -20.114031 -12.894556 20.760725
RightToeBase 11.460147 -0.000000 -0.000000
563
root 7.999906 32.513075 -3.823228 5.424883 20.715626 -1.591359
Spine 1.392206 -1.324518 -1.790876
Head 16.547921 -14.564369 2.266774
LeftShoulder -14.966164 -1.019263 29.966990
LeftArm -13.316907 -35.884787 -71.056488
LeftForeArm -3.756740 -0.000000 94.406046
LeftHand 16.581550 -0.000000 20.315185
LeftHandThumb1 -26.253704 0.000000 33.147579
RightShoulder -23.761990 -24.882205 -21.798662
RightArm 8.152360 -30.395668 89.377527
RightForeArm -24.298781 0.000000 103.243185
RightHand 17.544211 -0.000000 0.443403
RightHandThumb1 -24.326973 -0.000000 -32.862282
LeftUpLeg -0.320355 -12.335697 -4.188898
LeftLeg -4.320968 -0.000000 0.000000
LeftFoot -7.883429 8.049771 -12.977323
LeftToeBase 22.418408 -0.000000 -0.000000
RightUpLeg -7.670452 11.063370 6.326809
RightLeg 13.234842 -0.000000 -0.000000
RightFoot -19.937695 -12.787188 20.601825
RightToeBase 11.642856 -0.000000 -0.000000
564
root 7.985249 32.520126 -3.826017 5.391347 20.530737 -1.654309
Spine 1.378150 -1.283190 -1.818083
Head 16.724658 -14.496239 2.294426
LeftShoulder -14.995018 -0.995723 29.980142
LeftArm -13.277800 -35.842454 -71.028631
LeftForeArm -3.764039 -0.000000 94.413648
LeftHand 16.614980 0.000000 20.301698
LeftHandThumb1 -26.253704 0.000000 33.147579
RightShoulder -23.762167 -24.904943 -21.767602
RightArm 8.209531 -30.462218 89.362046
RightForeArm -24.358828 -0.000000 103.262912
RightHand 17.544141 -0.000000 0.383075
RightHandThumb1 -24.326973 -0.000000 -32.862282
LeftUpLeg -0.311199 -12.211500 -4.119446
LeftLeg -4.305572 -0.000000 0.000000
LeftFoot -7.815110 8.073781 -12.803166
LeftToeBase 21.980804 -0.000000 -0.000000
RightUpLeg -7.570865 10.859098 6.454772
RightLeg 12.952614 -0.000000 -0.000000
RightFoot -19.748235 -12.687392 20.366531
RightToeBase 11.573375 -0.000000 -0.000000
565
root 7.968294 32.526492 -3.831181 5.388413 20.338851 -1.696491
Spine 1.346836 -1.196848 -1.876295
Head 16.858518 -14.500049 2.327941
LeftShoulder -14.994854 -0.993443 29.999868
LeftArm -13.216014 -35.797508 -71.001796
LeftForeArm -3.583518 -0.000000 94.393060
LeftHand 16.625305 -0.000000 20.339251
LeftHandThumb1 -26.253704 0.000000 33.147579
RightShoulder -23.771836 -24.804752 -21.796163
RightArm 8.077729 -30.527004 89.473976
RightForeArm -24.422363 -0.000000 103.277049
RightHand 17.576421 -0.000000 0.307340
RightHandThumb1 -24.326973 -0.000000 -32.862282
LeftUpLeg -0.311528 -12.192321 -4.055125
LeftLeg -4.345667 -0.000000 0.000000
LeftFoot -7.909303 8.217678 -13.174410
LeftToeBase 22.200783 -0.000000 -0.000000
RightUpLeg -7.538514 10.739828 6.556660
RightLeg 12.796565 -0.000000 -0.000000
RightFoot -19.514593 -12.646102 20.038524
RightToeBase 11.500063 -0.000000 -0.000000
566
root 7.951219 32.531576 -3.839144 5.408619 20.201908 -1.729790
Spine 1.291474 -1.177752 -1.922488
Head 16.987610 -14.478870 2.330000
LeftShoulder -14.976437 -1.029172 30.001119
LeftArm -13.205260 -35.795347 -70.939477
LeftForeArm -3.550647 -0.000000 94.399311
LeftHand 16.709234 -0.000000 20.406991
LeftHandThumb1 -26.253704 0.000000 33.147579
RightShoulder -23.797511 -24.796040 -21.796321
RightArm 8.047823 -30.596635 89.529503
RightForeArm -24.428370 -0.000000 103.323363
RightHand 17.530082 -0.000000 0.353471
RightHandThumb1 -24.326973 -0.000000 -32.862282
LeftUpLeg -0.347631 -12.267225 -3.988160
LeftLeg -4.362143 -0.000000 0.000000
LeftFoot -7.869163 8.392956 -13.004606
LeftToeBase 21.984326 -0.000000 -0.000000
RightUpLeg -7.558962 10.691339 6.638208
RightLeg 12.795776 -0.000000 -0.000000
RightFoot -19.431215 -12.632448 20.015709
RightToeBase 11.901938 -0.000000 -0.000000
